<?xml version="1.0" standalone="no"?>
<!DOCTYPE svg PUBLIC "-//W3C//DTD SVG 20010904//EN"
 "http://www.w3.org/TR/2001/REC-SVG-20010904/DTD/svg10.dtd">
<svg version="1.0" xmlns="http://www.w3.org/2000/svg"
 width="320.000000pt" height="320.000000pt" viewBox="0 0 320.000000 320.000000"
 preserveAspectRatio="xMidYMid meet">
<metadata>
Created by potrace 1.11, written by Peter Selinger 2001-2013
</metadata>
<g transform="translate(0.000000,320.000000) scale(0.100000,-0.100000)"
fill="#000000" stroke="none">
<path d="M0 1600 l0 -1600 1600 0 1600 0 0 1600 0 1600 -1600 0 -1600 0 0
-1600z m1715 1290 c465 -53 787 -339 812 -723 l6 -87 -304 2 -304 3 -6 35
c-18 110 -107 178 -263 201 -126 19 -279 -14 -345 -74 -73 -67 -82 -207 -18
-275 54 -58 139 -82 397 -111 394 -45 598 -117 747 -266 133 -132 189 -299
181 -529 -4 -99 -10 -137 -34 -206 -72 -215 -264 -395 -517 -485 -163 -58
-279 -78 -462 -79 -176 0 -285 15 -426 60 -355 112 -583 377 -592 686 l-2 73
307 3 306 2 7 -39 c8 -50 53 -113 103 -146 183 -121 531 -86 637 64 25 36 30
51 29 101 -1 72 -27 124 -83 167 -54 42 -120 61 -251 74 -363 36 -486 62 -635
133 -265 126 -395 326 -395 608 0 133 22 234 75 343 81 166 182 266 360 355
196 98 433 137 670 110z"/>
</g>
</svg>
